<svg width="41" height="41" viewBox="0 0 41 41" fill="none" xmlns="http://www.w3.org/2000/svg">
<path fill-rule="evenodd" clip-rule="evenodd" d="M1 20.5C1 9.73045 9.73045 1 20.5 1C31.2696 1 40 9.73045 40 20.5C40 31.2696 31.2696 40 20.5 40C9.73045 40 1 31.2696 1 20.5Z" stroke="white" stroke-width="2"/>
<path d="M17.9224 11.1001H23.0909C25.8424 11.1001 27.4598 11.628 28.4207 12.5878C29.3816 13.5476 29.9114 15.1643 29.9147 17.9158L29.9207 23.0844C29.924 25.8359 29.398 27.4526 28.4393 28.4124C27.4806 29.3722 25.8645 29.9001 23.113 29.9001H17.9445C15.193 29.9001 13.5756 29.3722 12.6147 28.4124C11.6538 27.4526 11.124 25.8359 11.1207 23.0844L11.1147 17.9158C11.1114 15.1643 11.6374 13.5476 12.5961 12.5878C13.5548 11.628 15.1709 11.1001 17.9224 11.1001Z" stroke="white" stroke-width="2"/>
<path d="M25.9965 16.2771C26.6927 16.2771 27.2565 15.7126 27.2556 15.0165C27.2548 14.3203 26.6898 13.7559 25.9936 13.7559C25.2973 13.7559 24.7336 14.3203 24.7344 15.0165C24.7353 15.7126 25.3003 16.2771 25.9965 16.2771Z" fill="white"/>
<path fill-rule="evenodd" clip-rule="evenodd" d="M15.1603 20.5632C15.1568 17.5377 17.5491 15.1425 20.5746 15.1425C23.474 15.1425 25.8719 17.5377 25.7494 20.5632C25.7528 23.4625 23.3605 25.8576 20.4611 25.8576C17.5617 25.8576 15.1638 23.4625 15.1603 20.5632ZM17.3034 20.5632C17.3055 22.3279 18.6939 23.8407 20.5848 23.8407C22.3497 23.8407 23.8606 22.3279 23.8585 20.5632C23.8565 18.7983 22.468 17.2855 20.5771 17.2855C18.8123 17.2855 17.3012 18.6723 17.3034 20.5632Z" fill="white"/>
</svg>
