<svg width="107" height="21" viewBox="0 0 107 21" fill="none" xmlns="http://www.w3.org/2000/svg">
<path d="M20.1884 16V3.5726H24.2101C24.3079 3.5726 24.5093 3.57548 24.8142 3.58123C25.1191 3.58699 25.4126 3.60712 25.6945 3.64164C26.6956 3.76247 27.5442 4.11055 28.2404 4.68589C28.9365 5.26123 29.4658 5.99192 29.8283 6.87795C30.1908 7.76397 30.372 8.73342 30.372 9.7863C30.372 10.8392 30.1908 11.8086 29.8283 12.6947C29.4658 13.5807 28.9365 14.3114 28.2404 14.8867C27.5442 15.4621 26.6956 15.8101 25.6945 15.931C25.4126 15.9655 25.1191 15.9856 24.8142 15.9914C24.5093 15.9971 24.3079 16 24.2101 16H20.1884ZM22.5704 13.7907H24.2101C24.3654 13.7907 24.5754 13.7878 24.8401 13.7821C25.1047 13.7705 25.3435 13.7447 25.5564 13.7044C26.0972 13.5951 26.5373 13.3419 26.8768 12.9449C27.222 12.5479 27.4752 12.0704 27.6363 11.5123C27.8031 10.9542 27.8865 10.3789 27.8865 9.7863C27.8865 9.16493 27.8002 8.57521 27.6276 8.01712C27.4608 7.45904 27.2047 6.98726 26.8595 6.60178C26.5143 6.2163 26.08 5.97178 25.5564 5.86822C25.3435 5.82219 25.1047 5.7963 24.8401 5.79055C24.5754 5.78479 24.3654 5.78192 24.2101 5.78192H22.5704V13.7907ZM34.3412 16.2589C33.6738 16.2589 33.1071 16.1323 32.6411 15.8792C32.1808 15.6203 31.8298 15.2779 31.5882 14.8522C31.3523 14.4207 31.2343 13.946 31.2343 13.4282C31.2343 12.9967 31.3005 12.6026 31.4328 12.2459C31.5652 11.8892 31.778 11.5756 32.0715 11.3052C32.3706 11.029 32.7705 10.7989 33.2711 10.6148C33.6163 10.4882 34.0276 10.376 34.5052 10.2782C34.9827 10.1804 35.5235 10.0884 36.1276 10.0021C36.7317 9.91 37.3963 9.80932 38.1212 9.7L37.2754 10.166C37.2754 9.6137 37.1431 9.20808 36.8785 8.94918C36.6138 8.69027 36.1708 8.56082 35.5494 8.56082C35.2042 8.56082 34.8446 8.64425 34.4706 8.8111C34.0967 8.97795 33.8349 9.27425 33.6853 9.7L31.5623 9.02685C31.7982 8.25589 32.2412 7.62877 32.8913 7.14548C33.5415 6.66219 34.4275 6.42055 35.5494 6.42055C36.3722 6.42055 37.1028 6.54712 37.7415 6.80027C38.3801 7.05342 38.8634 7.49068 39.1913 8.11205C39.3754 8.45726 39.4848 8.80247 39.5193 9.14767C39.5538 9.49288 39.5711 9.87836 39.5711 10.3041V16H37.5171V14.0841L37.8105 14.4811C37.356 15.1082 36.8641 15.5627 36.3348 15.8447C35.8112 16.1208 35.1467 16.2589 34.3412 16.2589ZM34.8417 14.4121C35.2732 14.4121 35.6357 14.3373 35.9291 14.1877C36.2283 14.0323 36.4642 13.8568 36.6368 13.6612C36.8152 13.4656 36.936 13.3016 36.9993 13.1693C37.1201 12.9162 37.1891 12.6227 37.2064 12.289C37.2294 11.9496 37.2409 11.6677 37.2409 11.4433L37.9313 11.6159C37.2352 11.731 36.6713 11.8288 36.2398 11.9093C35.8083 11.9841 35.4602 12.0532 35.1956 12.1164C34.9309 12.1797 34.6979 12.2488 34.4965 12.3236C34.2664 12.4156 34.0794 12.5163 33.9356 12.6256C33.7975 12.7292 33.6939 12.8442 33.6249 12.9708C33.5616 13.0974 33.53 13.2384 33.53 13.3937C33.53 13.6066 33.5817 13.7907 33.6853 13.946C33.7946 14.0956 33.9471 14.2107 34.1427 14.2912C34.3383 14.3718 34.5713 14.4121 34.8417 14.4121ZM46.7169 16C46.0726 16.1208 45.4397 16.1726 44.8183 16.1553C44.2027 16.1438 43.6504 16.0374 43.1613 15.836C42.678 15.6289 42.3098 15.2981 42.0567 14.8436C41.8265 14.4178 41.7057 13.9863 41.6942 13.549C41.6827 13.106 41.6769 12.6055 41.6769 12.0474V4.09041H44.0243V11.9093C44.0243 12.2718 44.0272 12.5997 44.033 12.8932C44.0445 13.1808 44.1049 13.411 44.2142 13.5836C44.4213 13.9115 44.7522 14.0899 45.2067 14.1186C45.6612 14.1474 46.1646 14.1244 46.7169 14.0496V16ZM40.089 8.49178V6.67945H46.7169V8.49178H40.089ZM50.6926 16.2589C50.0252 16.2589 49.4585 16.1323 48.9925 15.8792C48.5322 15.6203 48.1812 15.2779 47.9396 14.8522C47.7037 14.4207 47.5858 13.946 47.5858 13.4282C47.5858 12.9967 47.6519 12.6026 47.7842 12.2459C47.9166 11.8892 48.1295 11.5756 48.4229 11.3052C48.7221 11.029 49.1219 10.7989 49.6225 10.6148C49.9677 10.4882 50.379 10.376 50.8566 10.2782C51.3341 10.1804 51.8749 10.0884 52.479 10.0021C53.0832 9.91 53.7477 9.80932 54.4726 9.7L53.6269 10.166C53.6269 9.6137 53.4945 9.20808 53.2299 8.94918C52.9652 8.69027 52.5222 8.56082 51.9008 8.56082C51.5556 8.56082 51.196 8.64425 50.8221 8.8111C50.4481 8.97795 50.1863 9.27425 50.0367 9.7L47.9137 9.02685C48.1496 8.25589 48.5926 7.62877 49.2427 7.14548C49.8929 6.66219 50.7789 6.42055 51.9008 6.42055C52.7236 6.42055 53.4542 6.54712 54.0929 6.80027C54.7315 7.05342 55.2148 7.49068 55.5427 8.11205C55.7269 8.45726 55.8362 8.80247 55.8707 9.14767C55.9052 9.49288 55.9225 9.87836 55.9225 10.3041V16H53.8685V14.0841L54.1619 14.4811C53.7074 15.1082 53.2155 15.5627 52.6862 15.8447C52.1626 16.1208 51.4981 16.2589 50.6926 16.2589ZM51.1932 14.4121C51.6247 14.4121 51.9871 14.3373 52.2806 14.1877C52.5797 14.0323 52.8156 13.8568 52.9882 13.6612C53.1666 13.4656 53.2874 13.3016 53.3507 13.1693C53.4715 12.9162 53.5406 12.6227 53.5578 12.289C53.5808 11.9496 53.5923 11.6677 53.5923 11.4433L54.2827 11.6159C53.5866 11.731 53.0227 11.8288 52.5912 11.9093C52.1597 11.9841 51.8116 12.0532 51.547 12.1164C51.2823 12.1797 51.0493 12.2488 50.8479 12.3236C50.6178 12.4156 50.4308 12.5163 50.287 12.6256C50.1489 12.7292 50.0453 12.8442 49.9763 12.9708C49.913 13.0974 49.8814 13.2384 49.8814 13.3937C49.8814 13.6066 49.9332 13.7907 50.0367 13.946C50.146 14.0956 50.2985 14.2107 50.4941 14.2912C50.6897 14.3718 50.9227 14.4121 51.1932 14.4121ZM62.1708 16.2589C61.2503 16.2589 60.4189 16.0978 59.6767 15.7756C58.9403 15.4477 58.3333 14.9816 57.8558 14.3775C57.384 13.7677 57.0848 13.0427 56.9582 12.2027L59.4092 11.8403C59.5818 12.5537 59.9385 13.1032 60.4793 13.4886C61.0201 13.8741 61.6358 14.0668 62.3262 14.0668C62.7116 14.0668 63.0856 14.0064 63.4481 13.8856C63.8105 13.7648 64.1068 13.5864 64.337 13.3505C64.5729 13.1147 64.6908 12.8241 64.6908 12.4789C64.6908 12.3523 64.6707 12.2315 64.6304 12.1164C64.5959 11.9956 64.5355 11.8834 64.4492 11.7799C64.3629 11.6763 64.2392 11.5785 64.0781 11.4864C63.9227 11.3944 63.7242 11.311 63.4826 11.2362L60.2549 10.2868C60.0133 10.2178 59.7314 10.12 59.4092 9.99342C59.0927 9.86685 58.7849 9.68562 58.4858 9.44973C58.1866 9.21384 57.9363 8.90315 57.7349 8.51767C57.5393 8.12644 57.4415 7.63452 57.4415 7.04192C57.4415 6.20767 57.6515 5.51438 58.0715 4.96206C58.4915 4.40973 59.0525 3.99836 59.7544 3.72795C60.4563 3.45753 61.233 3.32521 62.0845 3.33096C62.9418 3.34247 63.707 3.48918 64.3801 3.7711C65.0533 4.05301 65.6171 4.46438 66.0716 5.00521C66.5262 5.54027 66.8541 6.19616 67.0555 6.97288L64.5182 7.40438C64.4262 7.00164 64.2564 6.66219 64.009 6.38603C63.7616 6.10986 63.4653 5.89986 63.1201 5.75603C62.7807 5.61219 62.424 5.53452 62.05 5.52301C61.6818 5.51151 61.3337 5.56329 61.0058 5.67836C60.6836 5.78767 60.4189 5.94877 60.2118 6.16164C60.0104 6.37452 59.9097 6.62767 59.9097 6.9211C59.9097 7.19151 59.9931 7.41301 60.16 7.58562C60.3268 7.75247 60.5368 7.88767 60.79 7.99123C61.0431 8.09479 61.3021 8.1811 61.5667 8.25014L63.7242 8.83699C64.0464 8.92329 64.4031 9.03836 64.7944 9.18219C65.1856 9.32027 65.5596 9.51589 65.9163 9.76904C66.2788 10.0164 66.5751 10.3444 66.8052 10.7529C67.0411 11.1614 67.159 11.6792 67.159 12.3063C67.159 12.9737 67.0181 13.5577 66.7362 14.0582C66.46 14.553 66.086 14.9644 65.6142 15.2923C65.1425 15.6145 64.6074 15.8562 64.009 16.0173C63.4164 16.1784 62.8037 16.2589 62.1708 16.2589ZM68.5381 5.38493V3.3137H70.8855V5.38493H68.5381ZM68.5381 16V6.67945H70.8855V16H68.5381ZM76.7695 20.4014C76.2402 20.4014 75.7368 20.3151 75.2592 20.1425C74.7817 19.9756 74.3531 19.7397 73.9733 19.4348C73.5994 19.1356 73.2944 18.7847 73.0585 18.3819L75.2333 17.329C75.3829 17.6052 75.5958 17.8152 75.872 17.959C76.1539 18.1029 76.4588 18.1748 76.7868 18.1748C77.1377 18.1748 77.4685 18.1144 77.7792 17.9936C78.0899 17.8785 78.3373 17.703 78.5214 17.4671C78.7113 17.237 78.8005 16.9493 78.789 16.6041V13.8942H79.0824V6.67945H81.1364V16.6386C81.1364 16.8688 81.1249 17.0845 81.1018 17.2859C81.0846 17.493 81.0501 17.6973 80.9983 17.8986C80.8487 18.4682 80.5696 18.9371 80.1612 19.3053C79.7584 19.6736 79.2636 19.9468 78.6768 20.1252C78.0899 20.3093 77.4542 20.4014 76.7695 20.4014ZM76.5624 16.2589C75.7051 16.2589 74.9543 16.0432 74.3099 15.6116C73.6655 15.1801 73.1621 14.5933 72.7996 13.8511C72.4429 13.1089 72.2646 12.2718 72.2646 11.3397C72.2646 10.3904 72.4458 9.54753 72.8083 8.8111C73.1765 8.0689 73.6914 7.48493 74.3531 7.05918C75.0147 6.63343 75.7914 6.42055 76.6832 6.42055C77.5692 6.42055 78.3143 6.6363 78.9184 7.06781C79.5225 7.49932 79.9799 8.08616 80.2906 8.82836C80.6013 9.57055 80.7566 10.4077 80.7566 11.3397C80.7566 12.2718 80.5984 13.1089 80.282 13.8511C79.9713 14.5933 79.5053 15.1801 78.8839 15.6116C78.2625 16.0432 77.4887 16.2589 76.5624 16.2589ZM76.9421 14.1704C77.4657 14.1704 77.8828 14.0525 78.1935 13.8166C78.5099 13.5807 78.7372 13.2499 78.8753 12.8241C79.0133 12.3984 79.0824 11.9036 79.0824 11.3397C79.0824 10.7759 79.0133 10.2811 78.8753 9.85534C78.7372 9.42959 78.5157 9.09877 78.2107 8.86288C77.9116 8.62699 77.5175 8.50904 77.0284 8.50904C76.5049 8.50904 76.0733 8.63849 75.7339 8.8974C75.4002 9.15055 75.1528 9.49288 74.9917 9.92438C74.8306 10.3501 74.7501 10.8219 74.7501 11.3397C74.7501 11.8633 74.8277 12.3408 74.9831 12.7723C75.1384 13.1981 75.3772 13.5375 75.6994 13.7907C76.0216 14.0438 76.4358 14.1704 76.9421 14.1704ZM89.2146 16V11.5986C89.2146 11.3858 89.2031 11.1153 89.18 10.7874C89.157 10.4537 89.0851 10.12 88.9643 9.7863C88.8435 9.4526 88.645 9.17356 88.3688 8.94918C88.0984 8.72479 87.7129 8.6126 87.2124 8.6126C87.011 8.6126 86.7953 8.64425 86.5651 8.70753C86.335 8.77082 86.1192 8.89452 85.9179 9.07863C85.7165 9.25699 85.5496 9.52164 85.4173 9.8726C85.2907 10.2236 85.2274 10.6896 85.2274 11.2707L83.8811 10.6321C83.8811 9.89562 84.0307 9.20521 84.3299 8.56082C84.6291 7.91644 85.0779 7.39575 85.6762 6.99877C86.2803 6.60178 87.0398 6.40329 87.9546 6.40329C88.6853 6.40329 89.2807 6.52699 89.741 6.77438C90.2013 7.02178 90.558 7.33534 90.8111 7.71507C91.07 8.09479 91.2542 8.49178 91.3635 8.90603C91.4728 9.31452 91.539 9.68849 91.562 10.0279C91.585 10.3674 91.5965 10.6148 91.5965 10.7701V16H89.2146ZM82.8455 16V6.67945H84.934V9.76904H85.2274V16H82.8455ZM95.7345 16.2589C95.0671 16.2589 94.5004 16.1323 94.0344 15.8792C93.5741 15.6203 93.2231 15.2779 92.9815 14.8522C92.7456 14.4207 92.6277 13.946 92.6277 13.4282C92.6277 12.9967 92.6938 12.6026 92.8261 12.2459C92.9585 11.8892 93.1714 11.5756 93.4648 11.3052C93.764 11.029 94.1638 10.7989 94.6644 10.6148C95.0096 10.4882 95.4209 10.376 95.8985 10.2782C96.376 10.1804 96.9168 10.0884 97.5209 10.0021C98.125 9.91 98.7896 9.80932 99.5145 9.7L98.6687 10.166C98.6687 9.6137 98.5364 9.20808 98.2718 8.94918C98.0071 8.69027 97.5641 8.56082 96.9427 8.56082C96.5975 8.56082 96.2379 8.64425 95.864 8.8111C95.49 8.97795 95.2282 9.27425 95.0786 9.7L92.9556 9.02685C93.1915 8.25589 93.6345 7.62877 94.2846 7.14548C94.9348 6.66219 95.8208 6.42055 96.9427 6.42055C97.7655 6.42055 98.4961 6.54712 99.1348 6.80027C99.7734 7.05342 100.257 7.49068 100.585 8.11205C100.769 8.45726 100.878 8.80247 100.913 9.14767C100.947 9.49288 100.964 9.87836 100.964 10.3041V16H98.9104V14.0841L99.2038 14.4811C98.7493 15.1082 98.2574 15.5627 97.7281 15.8447C97.2045 16.1208 96.54 16.2589 95.7345 16.2589ZM96.235 14.4121C96.6666 14.4121 97.029 14.3373 97.3224 14.1877C97.6216 14.0323 97.8575 13.8568 98.0301 13.6612C98.2085 13.4656 98.3293 13.3016 98.3926 13.1693C98.5134 12.9162 98.5824 12.6227 98.5997 12.289C98.6227 11.9496 98.6342 11.6677 98.6342 11.4433L99.3246 11.6159C98.6285 11.731 98.0646 11.8288 97.6331 11.9093C97.2016 11.9841 96.8535 12.0532 96.5889 12.1164C96.3242 12.1797 96.0912 12.2488 95.8898 12.3236C95.6597 12.4156 95.4727 12.5163 95.3289 12.6256C95.1908 12.7292 95.0872 12.8442 95.0182 12.9708C94.9549 13.0974 94.9233 13.2384 94.9233 13.3937C94.9233 13.6066 94.975 13.7907 95.0786 13.946C95.1879 14.0956 95.3404 14.2107 95.536 14.2912C95.7316 14.3718 95.9646 14.4121 96.235 14.4121ZM102.691 16V3.3137H105.038V16H102.691Z" fill="white"/>
<path d="M18.9802 17.0788H106.419V17.5103H18.9802V17.0788Z" fill="white"/>
<a href="https://hold-bit.com/h5/#/pages/user/login/register?invite_code=L6DPAP">
<rect fill="black" fill-opacity="0" x="0.281616" y="-2.28877" width="87.4385" height="23.5775"/>
</a>
<path d="M5.47945 9.58904C5.47945 7.31938 7.31937 5.47945 9.58904 5.47945V6.84931C8.07593 6.84931 6.84931 8.07593 6.84931 9.58904H5.47945Z" fill="black"/>
<path d="M9.58904 2.73973C5.80627 2.73973 2.73973 5.80627 2.73973 9.58904H4.10959C4.10959 6.56282 6.56282 4.10959 9.58904 4.10959V2.73973Z" fill="white"/>
<path d="M9.58904 0C4.29316 -3.69507e-07 3.69507e-07 4.29316 0 9.58904H1.36986C1.36986 5.04971 5.04971 1.36986 9.58904 1.36986L9.58904 0Z" fill="white"/>
<path d="M8.21821 9.58906C8.21821 11.8587 6.37828 13.6987 4.10862 13.6987L4.10862 12.3288C5.62173 12.3288 6.84834 11.1022 6.84834 9.58906L8.21821 9.58906Z" fill="black"/>
<path d="M4.10861 16.4384C7.89139 16.4384 10.9579 13.3718 10.9579 9.58906L9.58807 9.58906C9.58807 12.6153 7.13483 15.0685 4.10861 15.0685L4.10861 16.4384Z" fill="white"/>
<path d="M4.10861 19.1781C9.40449 19.1781 13.6977 14.8849 13.6977 9.58906L12.3278 9.58906C12.3278 14.1284 8.64794 17.8082 4.10861 17.8082L4.10861 19.1781Z" fill="white"/>
</svg>
