<svg width="41" height="41" viewBox="0 0 41 41" fill="none" xmlns="http://www.w3.org/2000/svg">
<path fill-rule="evenodd" clip-rule="evenodd" d="M1 20.5C1 9.73045 9.73045 1 20.5 1C31.2696 1 40 9.73045 40 20.5C40 31.2696 31.2696 40 20.5 40C9.73045 40 1 31.2696 1 20.5Z" stroke="white" stroke-width="2"/>
<path d="M8.16389 19.8885C10.458 18.6945 13.0189 17.6978 15.4117 16.6961C19.5282 15.0554 23.661 13.4431 27.8355 11.942C28.6477 11.6863 30.1071 11.4362 30.2502 12.5736C30.1718 14.1835 29.8495 15.7841 29.6284 17.3847C29.0672 20.9044 28.4186 24.4121 27.7861 27.9203C27.5682 29.0889 26.0191 29.6938 25.0278 28.9459C22.6457 27.4255 20.2453 25.9198 17.8936 24.364C17.1232 23.6244 17.8376 22.5621 18.5256 22.0339C20.4875 20.2068 22.5683 18.6545 24.4277 16.7329C24.9293 15.5884 23.4473 16.553 22.9584 16.8486C20.2725 18.5976 17.6522 20.4535 14.8203 21.9907C13.3738 22.7431 11.6879 22.1001 10.242 21.6802C8.94566 21.173 7.04596 20.662 8.16376 19.8887L8.16389 19.8885Z" fill="white"/>
</svg>
